<svg width="32" height="32" viewBox="0 0 32 32" fill="none" xmlns="http://www.w3.org/2000/svg">
<g clip-path="url(#clip0_206_34)">
<rect width="32" height="32" rx="8" fill="#134074"/>
<path d="M10.728 33.16C10.3227 33.16 9.98133 33.0213 9.704 32.744C9.42667 32.4667 9.288 32.1253 9.288 31.72V13.384H2.76C2.376 13.384 2.056 13.256 1.8 13C1.544 12.744 1.416 12.424 1.416 12.04C1.416 11.656 1.544 11.336 1.8 11.08C2.056 10.8027 2.376 10.664 2.76 10.664H18.696C19.08 10.664 19.4 10.8027 19.656 11.08C19.9333 11.336 20.072 11.656 20.072 12.04C20.072 12.424 19.9333 12.744 19.656 13C19.4 13.256 19.08 13.384 18.696 13.384H12.2V31.72C12.2 32.1253 12.0507 32.4667 11.752 32.744C11.4747 33.0213 11.1333 33.16 10.728 33.16Z" fill="#F3F2F2"/>
<g clip-path="url(#clip1_206_34)">
<path d="M34.4519 7.36604C35.1621 7.89079 35.3322 8.90751 34.8315 9.63488L24.5781 24.5315C24.0775 25.2589 23.0943 25.4234 22.3841 24.8986L15.1118 19.5252C14.4016 19.0005 14.2314 17.9838 14.7321 17.2564C15.2328 16.529 16.216 16.3645 16.9261 16.8892L22.9136 21.3089L32.2627 7.73239C32.7633 7.00502 33.7465 6.84048 34.4567 7.36523L34.4519 7.36604Z" fill="#F3F2F2"/>
</g>
</g>
<defs>
<clipPath id="clip0_206_34">
<rect width="32" height="32" fill="white"/>
</clipPath>
<clipPath id="clip1_206_34">
<rect width="22" height="26" fill="white" transform="translate(12.3254 5.64197) rotate(-9.5)"/>
</clipPath>
</defs>
</svg>
