<svg width="32" height="32" viewBox="0 0 32 32" fill="none" xmlns="http://www.w3.org/2000/svg">
<g clip-path="url(#clip0_206_34)">
<rect width="32" height="32" rx="8" fill="#134074"/>
<path d="M8.936 32V10.816H12.072V32H8.936ZM1.832 11.456V8.64H19.176V11.456H1.832Z" fill="#F3F2F2"/>
<g clip-path="url(#clip1_206_34)">
<path d="M34.4519 7.36604C35.1621 7.89079 35.3322 8.90751 34.8315 9.63488L24.5781 24.5315C24.0775 25.2589 23.0943 25.4234 22.3841 24.8986L15.1118 19.5252C14.4016 19.0005 14.2314 17.9838 14.7321 17.2564C15.2328 16.529 16.216 16.3645 16.9261 16.8892L22.9136 21.3089L32.2627 7.73239C32.7633 7.00502 33.7465 6.84048 34.4567 7.36523L34.4519 7.36604Z" fill="#F3F2F2"/>
</g>
</g>
<defs>
<clipPath id="clip0_206_34">
<rect width="32" height="32" fill="white"/>
</clipPath>
<clipPath id="clip1_206_34">
<rect width="22" height="26" fill="white" transform="translate(12.3254 5.64197) rotate(-9.5)"/>
</clipPath>
</defs>
</svg>
